<svg xmlns="http://www.w3.org/2000/svg" width="56" height="55" viewBox="0 0 56 55">
    <g fill="none" fill-rule="evenodd">
        <g>
            <g>
                <g>
                    <path fill="#FFF" d="M0 22H53V34H0z" transform="translate(-214 -996) translate(190 996) translate(24)"/>
                    <g fill="#0045A6">
                        <path d="M25.216 2.083c8.444 0 15.32 6.897 15.32 15.32 0 1.237-.144 2.446-.448 3.598-.34 1.742-.913 3.235-2.018 5.3l-.598 1.083-.545.956c-.342.586-.652 1.019-1.11 1.565l-.63.726-.312.371-.27.342-.133.198c-.453.704-.586 1.38-.586 2.665v3.78l-.018.318c-.104.938-.669 1.737-1.543 2.197l-.57.3-.096.635-.08.482c-.736 4.091-2.665 5.998-6.363 5.998-3.84 0-5.773-2.056-6.443-6.48l-.096-.636-.57-.3-.28-.165c-.803-.533-1.28-1.382-1.28-2.349l-.003-4.157c-.031-1.552-.283-2.1-1.315-3.217l-.331-.377c-.722-.83-1.095-1.345-1.59-2.244l-.055-.092-.621-1.147c-.096-.181-.188-.357-.277-.529l-.492-.984c-.756-1.566-1.198-2.8-1.507-4.192l-.17-.72c-.197-.964-.29-1.935-.29-2.924 0-8.47 6.851-15.32 15.32-15.32zm4.873 38.692h-9.853l.384 1.574.112.422c.6 2.042 1.71 3.094 3.29 3.349.22.036.408.054.641.063l.553.008.506-.01c2.11-.101 3.42-1.092 4.028-3.86l.339-1.546zm2.07-7.56H18.274v5.405c0 .276.224.5.5.5H31.66c.276 0 .5-.224.5-.5v-5.406zM25.217 3.738c-7.54 0-13.664 6.148-13.664 13.665l.01.595c.026.779.107 1.504.26 2.188l.094.37.012.115.086.39c.303 1.286.767 2.46 1.574 4.009l.527.978.617 1.091c.416.694.735 1.152 1.168 1.683l.587.69c.446.45.81.92 1.14 1.447l.373.598h14.433l.484-.769.101-.146.235-.31.3-.364.956-1.114c.412-.496.7-.892 1.006-1.399l.188-.32.63-1.146.533-1.01c.893-1.746 1.343-2.95 1.638-4.378l.122-.644.091-.562c.109-.729.164-1.378.164-1.992 0-7.564-6.1-13.665-13.665-13.665z" transform="translate(-214 -996) translate(190 996) translate(24) translate(3 3)"/>
                        <path d="M27.972 9.375c.475 0 .665.447.527.948l-.058.168-2.95 6.411 3.01.002c.834 0 1.184.606.853 1.243l-.097.16-.116.148-6.87 8.144c-.307.392-.623.61-.924.61-.504 0-.667-.487-.5-.996l.068-.17 2.785-5.826h-2.19c-.821 0-1.174-.56-.89-1.21l.083-.165.111-.166L27.085 10c.263-.396.575-.626.887-.626zm-2.578 4.956L22 19.048l2.199.007c.233 0 .454.096.612.26l.107.137c.124.197.16.435.106.657l-.058.163-1.466 3.061 4.427-5.264-2.922-.003c-.232 0-.45-.094-.609-.257l-.107-.134c-.125-.195-.163-.43-.112-.652l.056-.162 1.16-2.53z" transform="translate(-214 -996) translate(190 996) translate(24) translate(3 3)"/>
                    </g>
                </g>
            </g>
        </g>
    </g>
</svg>
