<svg xmlns="http://www.w3.org/2000/svg" width="80" height="80" viewBox="0 0 80 80">
    <g fill="none" fill-rule="evenodd">
        <g fill="#FFF">
            <g>
                <g>
                    <path d="M40.346 3.333c13.51 0 24.513 11.035 24.513 24.513 0 1.978-.232 3.912-.718 5.755-.545 2.787-1.46 5.177-3.228 8.48l-.957 1.733-.873 1.53c-.547.937-1.044 1.63-1.775 2.503l-1.009 1.162-.5.595-.43.547-.214.316c-.725 1.127-.938 2.21-.938 4.263v6.05l-.028.508c-.167 1.5-1.07 2.779-2.47 3.515l-.91.48-.154 1.016-.127.771c-1.178 6.546-4.265 9.597-10.182 9.597-6.145 0-9.237-3.29-10.31-10.368l-.153-1.017-.91-.48-.449-.264c-1.285-.853-2.049-2.212-2.049-3.759l-.005-6.651c-.05-2.483-.453-3.359-2.103-5.147l-.53-.603c-1.155-1.328-1.752-2.152-2.543-3.59l-.09-.148-.993-1.835c-.154-.29-.301-.572-.443-.847l-.788-1.573c-1.208-2.507-1.917-4.482-2.411-6.708l-.27-1.153c-.317-1.542-.466-3.096-.466-4.678 0-13.55 10.963-24.513 24.513-24.513zm7.796 61.908H32.377l.614 2.518.18.675c.959 3.267 2.735 4.95 5.263 5.358.354.057.653.086 1.027.1l.885.013.81-.014c3.375-.163 5.471-1.75 6.443-6.178l.543-2.472zm3.313-12.098H29.237v8.948c0 .276.224.5.5.5h21.218c.276 0 .5-.224.5-.5v-8.948zM40.346 5.983c-12.065 0-21.863 9.836-21.863 21.863l.015.952c.043 1.247.172 2.406.417 3.502l.15.592.02.183.138.624c.484 2.057 1.227 3.936 2.518 6.414l.843 1.565.987 1.746c.666 1.11 1.176 1.844 1.869 2.692l.94 1.106c.713.719 1.294 1.47 1.822 2.314l.598.957h23.092l.775-1.23c.052-.078.106-.156.162-.234l.375-.497.48-.582 1.53-1.781c.66-.795 1.12-1.428 1.61-2.24l.3-.51 1.01-1.834.852-1.618c1.428-2.793 2.148-4.718 2.62-7.004l.195-1.03.146-.9c.174-1.165.262-2.205.262-3.187 0-12.102-9.76-21.863-21.863-21.863z" transform="translate(-318 -4253) translate(189 4193) translate(129 60)"/>
                    <path d="M44.755 15c.76 0 1.064.715.844 1.516l-.094.27-4.718 10.257 4.814.003c1.336 0 1.896.97 1.365 1.99l-.155.255-.186.236-10.991 13.031c-.492.628-.997.976-1.48.976-.806 0-1.067-.78-.798-1.593l.109-.272 4.455-9.322-3.504.001c-1.314 0-1.878-.897-1.425-1.938l.134-.263.178-.266 10.033-13.88c.42-.634.92-1.001 1.419-1.001zm-4.125 7.93l-5.43 7.547 3.518.01c.373 0 .726.154.98.418l.17.218c.2.316.258.697.17 1.052l-.093.26-2.345 4.898 7.083-8.423-4.675-.004c-.37 0-.721-.15-.974-.411l-.171-.215c-.2-.312-.262-.689-.18-1.043l.09-.26 1.857-4.047z" transform="translate(-318 -4253) translate(189 4193) translate(129 60)"/>
                </g>
            </g>
        </g>
    </g>
</svg>
