<svg xmlns="http://www.w3.org/2000/svg" width="56" height="55" viewBox="0 0 56 55">
    <g fill="none" fill-rule="evenodd">
        <g>
            <g>
                <g>
                    <path fill="#FFF" d="M0 22H53V34H0z" transform="translate(-572 -1116) translate(548 1116) translate(24)"/>
                    <g fill="#0045A6">
                        <path d="M44.907 43.287h-5.092V26.019l.231.138c1.065.695 2.408.787 3.519.186 1.11-.602 1.805-1.76 1.805-3.01 0-1.157-.555-2.222-1.527-2.87L25.509 8.241c-.324-.185-.694-.185-1.018 0l-6.898 4.63V9.953c0-2.037-1.667-3.704-3.704-3.704s-3.704 1.667-3.704 3.704v7.824l-4.028 2.685c-.972.648-1.527 1.713-1.527 2.87 0 1.25.694 2.408 1.805 3.01.51.277 1.065.416 1.62.416.649 0 1.343-.185 1.899-.555l.231-.14v17.223H5.093c-.51 0-.926.417-.926.926 0 .51.416.926.926.926h39.814c.51 0 .926-.417.926-.926 0-.51-.416-.926-.926-.926zM13.89 8.102c1.018 0 1.852.833 1.852 1.852v4.12l-3.704 2.454V9.954c0-1.019.833-1.852 1.852-1.852zM8.935 24.63c-.51.324-1.11.37-1.62.092s-.834-.787-.834-1.389c0-.509.278-1.018.695-1.296l4.444-2.963 5.556-3.704L25 10.14l17.824 11.898c.463.278.695.787.695 1.296 0 .602-.325 1.111-.834 1.39-.51.277-1.11.23-1.62-.093l-1.667-1.111-13.889-9.26c-.324-.185-.694-.185-1.018 0L10.6 23.52l-1.666 1.11zm3.102.185L25 16.157l12.963 8.658v18.472H12.037V24.815zm20.556 1.528L18.703 40.23c-.184.186-.416.278-.647.278-.232 0-.463-.092-.649-.278-.37-.37-.37-.925 0-1.296l13.89-13.889c.37-.37.925-.37 1.296 0 .37.37.37.926 0 1.297zM20.37 31.25c1.806 0 3.241-1.435 3.241-3.24 0-1.806-1.435-3.241-3.24-3.241-1.806 0-3.241 1.435-3.241 3.24 0 1.806 1.435 3.241 3.24 3.241zm0-4.63c.787 0 1.39.602 1.39 1.39 0 .786-.603 1.388-1.39 1.388-.787 0-1.389-.602-1.389-1.389s.602-1.389 1.39-1.389zm9.26 7.408c-1.806 0-3.241 1.435-3.241 3.24 0 1.806 1.435 3.241 3.24 3.241 1.806 0 3.241-1.435 3.241-3.24 0-1.806-1.435-3.241-3.24-3.241zm0 4.63c-.787 0-1.39-.602-1.39-1.39 0-.787.603-1.388 1.39-1.388.787 0 1.389.601 1.389 1.389 0 .787-.602 1.388-1.39 1.388z" transform="translate(-572 -1116) translate(548 1116) translate(24) translate(3 3)"/>
                    </g>
                </g>
            </g>
        </g>
    </g>
</svg>
